Coordinates
version=1
nRows=5
nColumns=42
inDegrees=yes

Units are S.I. units (second, meters, Newtons, ...)
If the header above contains a line with 'inDegrees', this indicates whether rotational values are in degrees (yes) or radians (no).

endheader
time	pelvis_tilt	pelvis_list	pelvis_rotation	pelvis_tx	pelvis_ty	pelvis_tz	hip_flexion_r	hip_adduction_r	hip_rotation_r	knee_angle_r	knee_adduction_r	knee_angle_r_beta	ankle_angle_r	subtalar_angle_r	mtp_angle_r	hip_flexion_l	hip_adduction_l	hip_rotation_l	knee_angle_l	knee_adduction_l	knee_angle_l_beta	ankle_angle_l	subtalar_angle_l	mtp_angle_l	lumbar_extension	lumbar_bending	lumbar_rotation	arm_flex_r	arm_add_r	arm_rot_r	elbow_flex_r	pro_sup_r	wrist_flex_r	wrist_dev_r	arm_flex_l	arm_add_l	arm_rot_l	elbow_flex_l	pro_sup_l	wrist_flex_l	wrist_dev_l
      1.70000000	      9.23114611	      1.91558908	      0.36773209	      1.51703067	      0.92341387	     -0.20782009	     21.22180477	     -2.20572460	    -16.68884704	     16.62808777	     -4.01419712	      0.29021488	     11.87071872	     13.21737495	     -7.50610492	    -29.35613853	      1.39967588	    -20.39747829	     17.15005807	     -5.23779029	      0.29932498	     19.58999762	     35.03699401	     -7.50610492	    -21.08207977	      0.29433285	     -8.34198831	    -10.31884234	     -5.83885505	      0.30206004	     25.06080141	     90.00000001	      0.00000000	      0.00000000	     10.69429107	    -16.91732494	     -3.68179908	     60.07388972	     90.00000001	      0.00000000	      0.00000000
      1.71000000	      9.22319779	      1.50007868	      0.32908667	      1.53513452	      0.92316506	     -0.20543650	     21.35144849	     -1.61998013	    -16.60208096	     18.84776297	     -4.37705581	      0.32895552	     11.08228646	     12.17973154	     -7.50597338	    -29.37163147	      0.65794551	    -20.40272109	     19.08418116	     -5.56963365	      0.33308180	     17.32365704	     34.29508435	     -7.50597338	    -20.91514371	      0.74433438	     -8.20784497	    -10.08789460	     -5.95646960	      0.26696868	     25.06475192	     90.00000001	      0.00000000	      0.00000000	     10.06022597	    -16.70310636	     -3.72307404	     59.64302030	     90.00000001	      0.00000000	      0.00000000
      1.72000000	      9.29273892	      1.07902041	      0.16685815	      1.55317199	      0.92361160	     -0.20295162	     21.21828355	     -0.94912653	    -15.84865041	     20.81885162	     -4.55410399	      0.36335751	     10.17605999	     10.37365221	     -7.50561678	    -29.35468844	      0.04947351	    -19.97228613	     21.15283001	     -5.87618541	      0.36918653	     14.53599020	     32.62038739	     -7.50561678	    -20.86736234	      1.18252894	     -7.99413630	     -9.71807258	     -6.09211512	      0.27169159	     24.97579134	     90.00000001	      0.00000000	      0.00000000	      9.40423874	    -16.32016095	     -4.08685485	     59.01026066	     90.00000001	      0.00000000	      0.00000000
      1.73000000	      9.54113426	      0.59203922	     -0.03441860	      1.57116242	      0.92463119	     -0.20033159	     20.89517574	     -0.24861285	    -15.64949387	     22.83251862	     -4.83492741	      0.39850263	      9.88985423	      9.72358332	     -7.50554200	    -29.23072599	     -0.67804165	    -20.05574670	     23.66545880	     -6.34890807	      0.41304017	     12.04879524	     31.45438878	     -7.50554200	    -21.04128393	      1.66540836	     -7.69658501	     -9.33372728	     -6.24045859	      0.28781634	     25.02236010	     90.00000001	      0.00000000	      0.00000000	      8.68334218	    -16.05896651	     -4.14382049	     58.48709860	     90.00000001	      0.00000000	      0.00000000
      1.74000000	      9.85480380	      0.11201596	     -0.35176724	      1.58894833	      0.92627518	     -0.19763815	     20.34157055	      0.52081871	    -14.98082973	     24.59610911	     -4.99461609	      0.42928309	      9.77069808	      8.83954267	     -7.50542966	    -29.01752478	     -1.26964769	    -19.72851568	     26.34742337	     -6.76604287	      0.45984929	      8.96467326	     29.34455125	     -7.50542966	    -21.34312236	      2.11174189	     -7.32544153	     -8.84341314	     -6.42941281	      0.35995877	     25.08087231	     90.00000001	      0.00000000	      0.00000000	      7.96639224	    -15.70639012	     -4.33958025	     57.73711203	     90.00000001	      0.00000000	      0.00000000
